<svg width="43" height="42" viewBox="0 0 43 42" fill="none" xmlns="http://www.w3.org/2000/svg">
<g clip-path="url(#clip0_147_1605)">
<path d="M40.8508 4.12512L37.8649 4.55176L38.2916 1.5659C38.4771 0.268088 36.8963 -0.525154 35.9678 0.40426L30.4899 5.88214C30.2804 6.09165 30.1445 6.36358 30.1026 6.65693L29.4824 10.998L22.7192 17.7613C22.1836 17.505 21.5913 17.3496 20.959 17.3496C18.6935 17.3496 16.8506 19.1925 16.8506 21.458C16.8506 23.7234 18.6935 25.5664 20.959 25.5664C23.2244 25.5664 25.0673 23.7234 25.0673 21.458C25.0673 20.8257 24.912 20.2333 24.6557 19.6978L31.4189 12.9345L35.76 12.3144C36.0534 12.2725 36.3252 12.1365 36.5348 11.927L42.0127 6.44914C42.9383 5.52326 42.1546 3.94243 40.8508 4.12512Z" fill="url(#paint0_linear_147_1605)"/>
<path d="M32.0692 16.1576L27.7306 20.4959C27.7752 20.8111 27.8063 21.1306 27.8063 21.4579C27.8063 25.2337 24.7348 28.3052 20.959 28.3052C17.1832 28.3052 14.1117 25.2337 14.1117 21.4579C14.1117 17.6821 17.1831 14.6106 20.959 14.6106C21.2862 14.6106 21.6056 14.6416 21.9207 14.6862L26.2593 10.3477C24.651 9.57726 22.8581 9.13281 20.959 9.13281C14.1629 9.13281 8.63379 14.662 8.63379 21.458C8.63379 28.2541 14.1629 33.7832 20.959 33.7832C27.755 33.7832 33.2842 28.2541 33.2842 21.458C33.2841 19.5588 32.8398 17.7659 32.0692 16.1576Z" fill="url(#paint1_linear_147_1605)"/>
<path d="M39.5656 12.7694L38.4714 13.8636C37.8473 14.4882 37.0216 14.9009 36.1475 15.0257L34.6627 15.2379C35.5283 17.1368 36.0231 19.2387 36.0231 21.458C36.0231 29.7644 29.2654 36.5222 20.959 36.5222C12.6526 36.5222 5.89488 29.7644 5.89488 21.458C5.89488 13.1516 12.6527 6.3939 20.959 6.3939C23.1784 6.3939 25.2803 6.88879 27.1791 7.7543L27.3912 6.26954C27.516 5.39533 27.9289 4.56977 28.5534 3.94518L29.6474 2.85138C26.9488 1.58752 24.0068 0.916016 20.9589 0.916016C9.63189 0.916016 0.416992 10.131 0.416992 21.458C0.416992 32.7851 9.63197 42.0001 20.959 42.0001C32.2861 42.0001 41.501 32.7851 41.501 21.458C41.501 18.4101 40.8295 15.4679 39.5656 12.7694Z" fill="url(#paint2_linear_147_1605)"/>
</g>
<defs>
<linearGradient id="paint0_linear_147_1605" x1="29.6335" y1="-1.76847" x2="33.3385" y2="26.5468" gradientUnits="userSpaceOnUse">
<stop stop-color="white"/>
<stop offset="1" stop-color="#121523"/>
</linearGradient>
<linearGradient id="paint1_linear_147_1605" x1="20.959" y1="7.4277" x2="24.5312" y2="34.7285" gradientUnits="userSpaceOnUse">
<stop stop-color="white"/>
<stop offset="1" stop-color="#121523"/>
</linearGradient>
<linearGradient id="paint2_linear_147_1605" x1="20.959" y1="-1.92584" x2="26.9126" y2="43.5756" gradientUnits="userSpaceOnUse">
<stop stop-color="white"/>
<stop offset="1" stop-color="#121523"/>
</linearGradient>
<clipPath id="clip0_147_1605">
<rect width="42" height="42" fill="white" transform="translate(0.416504)"/>
</clipPath>
</defs>
</svg>
