<svg width="37" height="28" viewBox="0 0 37 28" fill="none" xmlns="http://www.w3.org/2000/svg">
<path d="M36.3217 8.55335C33.6391 0.509606 25.5503 -1.6273 18.979 2.60849C18.021 3.11361 14.7269 6.45357 12.7584 8.44833L12.4434 8.7699C12.2662 8.95123 12.1392 9.17556 12.075 9.42083C12.0107 9.6661 12.0114 9.92388 12.0769 10.1688C12.1425 10.4137 12.2706 10.6374 12.4488 10.8178C12.627 10.9982 12.849 11.1291 13.0931 11.1977C15.4888 11.789 17.7652 10.3835 18.6443 9.56385L23.1523 6.61104C23.272 6.54212 23.4096 6.51031 23.5474 6.51966C23.6853 6.529 23.8173 6.57908 23.9266 6.66354C26.6423 9.43125 29.761 6.98656 29.8781 6.84065C30.0113 6.72892 30.1834 6.67459 30.3566 6.68955C30.5298 6.70452 30.69 6.78756 30.8021 6.92047C30.9142 7.05339 30.9689 7.22532 30.9544 7.39856C30.9399 7.57181 30.8573 7.73222 30.7246 7.84463C29.0298 9.37435 25.5844 10.0243 23.4476 7.98889L19.4121 10.6268C18.1107 12.1585 11.9615 14.3352 10.8095 10.5414C10.6653 9.99557 10.6841 9.41943 10.8638 8.88418C11.0434 8.34894 11.3759 7.87805 11.8202 7.5297C14.1036 5.21992 16.1247 3.19888 17.3977 2.14244C13.1455 0.0623773 7.39742 -0.219751 3.01416 4.86563C2.02104 5.88394 1.24586 7.09396 0.73592 8.42181C0.225983 9.74967 -0.0080102 11.1675 0.048224 12.5888C0.218849 16.3159 3.11913 19.3606 4.79894 20.8173C4.93969 20.4208 5.16596 20.0601 5.46169 19.7609L9.26752 15.955C9.81227 15.4129 10.5495 15.1086 11.3181 15.1086C12.0866 15.1086 12.8239 15.4129 13.3686 15.955C13.7557 16.2657 14.0618 16.6656 14.2607 17.1204C14.4595 17.5753 14.5452 18.0715 14.5103 18.5667C14.9675 18.5315 15.427 18.5918 15.8595 18.7439C16.2921 18.896 16.6882 19.1364 17.0228 19.45C17.3573 19.7635 17.6229 20.1433 17.8027 20.5651C17.9824 20.9869 18.0724 21.4415 18.0669 21.9C18.5031 21.8562 18.9436 21.9075 19.358 22.0503C19.7725 22.193 20.1512 22.4239 20.4679 22.7269C20.7847 23.03 21.0321 23.398 21.193 23.8058C21.3539 24.2136 21.4246 24.6514 21.4002 25.0891C22.0773 25.0947 22.7267 25.3587 23.2157 25.827C23.7047 26.2953 23.9965 26.9326 24.0315 27.6088C24.3269 27.7609 24.6647 27.8099 24.9912 27.7482C25.3177 27.6864 25.6142 27.5173 25.8336 27.2677C26.053 27.0181 26.1827 26.7024 26.2022 26.3707C26.2216 26.039 26.1297 25.7103 25.9409 25.4368L20.5669 20.0627C20.4481 19.9384 20.3828 19.7724 20.3851 19.6004C20.3874 19.4285 20.457 19.2643 20.579 19.1431C20.7011 19.0219 20.8658 18.9535 21.0377 18.9524C21.2097 18.9514 21.3752 19.0179 21.4987 19.1375C21.6307 19.2793 21.7733 19.4109 21.9252 19.5312L26.7088 24.3082C26.7801 24.382 26.8459 24.4609 26.9056 24.5444C27.0674 24.7209 27.2626 24.8637 27.4799 24.9643C27.6971 25.065 27.9322 25.1217 28.1715 25.131C28.4107 25.1404 28.6495 25.1022 28.8739 25.0188C29.0984 24.9353 29.3041 24.8082 29.4792 24.6449C29.6542 24.4815 29.7952 24.2851 29.8939 24.0669C29.9927 23.8487 30.0472 23.6132 30.0544 23.3738C30.0616 23.1345 30.0213 22.8961 29.9359 22.6724C29.8504 22.4487 29.7215 22.2442 29.5566 22.0706C29.5107 22.0312 29.4648 22.005 29.4188 21.9656L23.9397 16.48C23.8789 16.4193 23.8306 16.3472 23.7977 16.2678C23.7647 16.1884 23.7478 16.1033 23.7478 16.0174C23.7478 15.9314 23.7647 15.8463 23.7977 15.7669C23.8306 15.6876 23.8789 15.6155 23.9397 15.5548C24.012 15.4874 24.0976 15.4361 24.191 15.4039C24.2844 15.3718 24.3834 15.3597 24.4818 15.3684C24.5802 15.3771 24.6757 15.4063 24.762 15.4542C24.8484 15.5022 24.9237 15.5677 24.983 15.6466C24.9841 15.6589 30.4816 21.1226 30.4752 21.1388C30.833 21.431 31.2891 21.5752 31.7498 21.5416C32.2106 21.508 32.641 21.2993 32.9526 20.9583C33.2642 20.6172 33.4334 20.1698 33.4254 19.7079C33.4174 19.246 33.2329 18.8047 32.9096 18.4747L27.424 12.9956C27.3048 12.8712 27.2391 12.705 27.241 12.5327C27.2429 12.3604 27.3122 12.1957 27.434 12.0738C27.5559 11.952 27.7206 11.8827 27.8929 11.8808C28.0652 11.879 28.2314 11.9447 28.3558 12.0639L33.8349 17.5495C34.0074 17.7224 34.1573 17.9164 34.2811 18.1269C34.5108 17.9345 34.708 17.7063 34.8651 17.4511C35.797 16.1902 36.4151 14.7255 36.6685 13.1782C36.9218 11.6309 36.8029 10.0456 36.3217 8.55335Z" fill="url(#paint0_linear_147_1633)"/>
<defs>
<linearGradient id="paint0_linear_147_1633" x1="18.4191" y1="-1.40853" x2="21.3785" y2="29.0509" gradientUnits="userSpaceOnUse">
<stop stop-color="white"/>
<stop offset="1" stop-color="#121523"/>
</linearGradient>
</defs>
</svg>
