<svg width="43" height="42" viewBox="0 0 43 42" fill="none" xmlns="http://www.w3.org/2000/svg">
<path d="M12.2127 3.29761V38.7023H7.18418V7.76831H4.11621V3.29761H12.2127Z" fill="url(#paint0_linear_147_1620)"/>
<path d="M20.3911 2.95312H22.4255C25.2146 2.95312 27.4704 5.20898 27.4704 7.99805V34.0102C27.4704 36.7992 25.2146 39.0551 22.4255 39.0551H20.3911C17.6021 39.0551 15.3462 36.7992 15.3462 34.0102V7.99805C15.3462 5.20898 17.6021 2.95312 20.3911 2.95312ZM21.3591 34.2316H21.4493C21.9989 34.2316 22.4419 33.7887 22.4419 33.2391V8.76094C22.4419 8.21133 21.9989 7.76836 21.4493 7.76836H21.3591C20.8095 7.76836 20.3665 8.21133 20.3665 8.76094V33.2391C20.3665 33.7887 20.8095 34.2316 21.3591 34.2316Z" fill="url(#paint1_linear_147_1620)"/>
<path d="M38.717 3.29761V38.7023H33.6885V7.76831H30.6123V3.29761H38.717Z" fill="url(#paint2_linear_147_1620)"/>
<defs>
<linearGradient id="paint0_linear_147_1620" x1="8.16445" y1="0.848598" x2="25.3559" y2="30.895" gradientUnits="userSpaceOnUse">
<stop stop-color="white"/>
<stop offset="1" stop-color="#121523"/>
</linearGradient>
<linearGradient id="paint1_linear_147_1620" x1="21.4083" y1="0.455885" x2="35.1649" y2="35.7643" gradientUnits="userSpaceOnUse">
<stop stop-color="white"/>
<stop offset="1" stop-color="#121523"/>
</linearGradient>
<linearGradient id="paint2_linear_147_1620" x1="34.6646" y1="0.848598" x2="51.8473" y2="30.91" gradientUnits="userSpaceOnUse">
<stop stop-color="white"/>
<stop offset="1" stop-color="#121523"/>
</linearGradient>
</defs>
</svg>
