<svg width="48" height="48" viewBox="0 0 48 48" fill="none" xmlns="http://www.w3.org/2000/svg">
<g clip-path="url(#clip0_68_29413)">
<path d="M36.7868 4.03192C36.7484 4.03192 36.7052 4.02712 36.6668 4.01752L23.9996 1.08472L11.3324 4.01272C11.0444 4.07992 10.7564 3.89752 10.6892 3.60952C10.622 3.32152 10.8044 3.03352 11.0924 2.96632L23.8796 0.00951719C23.9612 -0.00968281 24.0428 -0.00968281 24.1196 0.00951719L36.9068 2.96632C37.1948 3.03352 37.3772 3.32152 37.31 3.60952C37.2524 3.86392 37.0316 4.03192 36.7868 4.03192Z" fill="#F5F5F5"/>
<path d="M23.9998 5.25098L4.91016 9.66698C4.91016 47.3998 23.9998 47.9998 23.9998 47.9998C23.9998 47.9998 43.0894 47.3998 43.0894 9.66698L23.9998 5.25098ZM33.7918 35.3278C32.2366 36.2926 30.5998 36.859 29.1214 37.1902C27.5662 37.5406 26.0926 36.331 26.0926 34.7374V29.6734V27.6142L29.8942 25.4158V21.1534L23.9998 24.523L18.1054 21.1534V25.4158L21.907 27.6142V29.6734V34.7374C21.907 36.355 20.3998 37.5358 18.8254 37.1806C17.3614 36.8494 15.7438 36.2782 14.2078 35.3278C13.3966 34.8238 12.9118 33.9262 12.9118 32.9758V22.0078C12.9118 16.9006 16.3918 12.6478 20.7406 11.563C21.3934 11.3998 23.083 10.9102 23.9998 10.0078C24.9166 10.9102 26.6062 11.3998 27.259 11.563C31.6078 12.6478 35.0878 16.9006 35.0878 22.0078V32.971C35.0878 33.9262 34.603 34.8238 33.7918 35.3278Z" fill="#F5F5F5"/>
</g>
<defs>
<clipPath id="clip0_68_29413">
<rect width="48" height="48" fill="white"/>
</clipPath>
</defs>
</svg>
