<svg width="43" height="42" viewBox="0 0 43 42" fill="none" xmlns="http://www.w3.org/2000/svg">
<g clip-path="url(#clip0_147_1616)">
<path d="M41.5553 0.00513048C33.3566 -0.14187 24.0063 4.14388 18.0878 10.7921C12.4318 10.8989 6.92459 13.2176 2.86984 17.2724C2.63359 17.5051 2.54959 17.8534 2.65284 18.1684C2.75784 18.4851 3.03084 18.7144 3.35984 18.7616L10.1043 19.7276L9.27134 20.6604C8.96159 21.0069 8.97734 21.5336 9.30634 21.8626L20.5536 33.1099C20.7233 33.2796 20.9473 33.3654 21.1731 33.3654C21.3813 33.3654 21.5896 33.2919 21.7558 33.1431L22.6886 32.3101L23.6546 39.0546C23.7018 39.3836 23.9608 39.6251 24.2741 39.7301C24.3546 39.7564 24.4386 39.7686 24.5243 39.7686C24.7728 39.7686 25.0266 39.6601 25.2016 39.4869C29.2003 35.4881 31.5191 29.9809 31.6258 24.3249C38.2811 18.3941 42.6018 9.04738 42.4111 0.85913C42.3988 0.39363 42.0226 0.0173805 41.5553 0.00513048ZM33.4913 15.1111C32.6391 15.9634 31.5191 16.3904 30.3973 16.3904C29.2756 16.3904 28.1556 15.9634 27.3033 15.1111C25.5988 13.4049 25.5988 10.6294 27.3033 8.92313C29.0096 7.21688 31.7851 7.21688 33.4913 8.92313C35.1976 10.6294 35.1976 13.4066 33.4913 15.1111Z" fill="url(#paint0_linear_147_1616)"/>
<path d="M5.1836 29.5838C3.3111 31.4563 0.740354 39.9158 0.453354 40.8731C0.360604 41.1811 0.446354 41.5153 0.672104 41.7428C0.840104 41.9108 1.06235 42.0001 1.2916 42.0001C1.3756 42.0001 1.4596 41.9878 1.5436 41.9633C2.50085 41.6763 10.9604 39.1056 12.8329 37.2331C14.9416 35.1243 14.9416 31.6926 12.8329 29.5838C10.7224 27.4751 7.29235 27.4768 5.1836 29.5838Z" fill="url(#paint1_linear_147_1616)"/>
</g>
<defs>
<linearGradient id="paint0_linear_147_1616" x1="22.5133" y1="-2.74931" x2="28.2704" y2="41.2952" gradientUnits="userSpaceOnUse">
<stop stop-color="white"/>
<stop offset="1" stop-color="#121523"/>
</linearGradient>
<linearGradient id="paint1_linear_147_1616" x1="7.41546" y1="27.0347" x2="9.44373" y2="42.5369" gradientUnits="userSpaceOnUse">
<stop stop-color="white"/>
<stop offset="1" stop-color="#121523"/>
</linearGradient>
<clipPath id="clip0_147_1616">
<rect width="42" height="42" fill="white" transform="translate(0.416504)"/>
</clipPath>
</defs>
</svg>
