<svg width="43" height="42" viewBox="0 0 43 42" fill="none" xmlns="http://www.w3.org/2000/svg">
<path d="M21.4168 23.6142C22.8605 23.6142 24.0309 22.4438 24.0309 21.0001C24.0309 19.5564 22.8605 18.386 21.4168 18.386C19.9731 18.386 18.8027 19.5564 18.8027 21.0001C18.8027 22.4438 19.9731 23.6142 21.4168 23.6142Z" fill="url(#paint0_linear_147_1635)"/>
<path d="M30.4896 21.0001C30.4896 19.7874 30.2498 18.6299 29.8163 17.5715L32.5461 15.9954C31.9926 15.3899 31.5674 14.6656 31.3132 13.8656L28.5828 15.442C27.1597 13.6114 25.0519 12.3385 22.6473 12.0111V8.86182C22.2507 8.94902 21.8393 8.99635 21.4169 8.99635C20.9944 8.99635 20.583 8.94902 20.1864 8.86182V12.0111C17.7818 12.3385 15.6741 13.6114 14.2509 15.442L11.52 13.8653C11.3972 14.2524 11.2325 14.6323 11.0213 14.9982C10.8122 15.3603 10.5655 15.6938 10.2887 15.9961L13.0174 17.5715C12.5838 18.6299 12.3441 19.7874 12.3441 21.0001C12.3441 22.2127 12.5839 23.3703 13.0174 24.4286L10.2876 26.0047C10.8411 26.6102 11.2663 27.3345 11.5205 28.1345L14.2509 26.5581C15.674 28.3887 17.7818 29.6616 20.1864 29.989V33.1383C20.583 33.0511 20.9944 33.0038 21.4169 33.0038C21.8393 33.0038 22.2507 33.0511 22.6473 33.1383V29.989C25.0519 29.6616 27.1596 28.3887 28.5828 26.5581L31.3132 28.1345C31.5675 27.3345 31.9927 26.6102 32.5461 26.0047L29.8163 24.4286C30.2498 23.3703 30.4896 22.2127 30.4896 21.0001ZM21.4168 26.0751C18.6184 26.0751 16.3418 23.7984 16.3418 21.0001C16.3418 18.2017 18.6184 15.925 21.4168 15.925C24.2151 15.925 26.4918 18.2017 26.4918 21.0001C26.4918 23.7984 24.2152 26.0751 21.4168 26.0751Z" fill="url(#paint1_linear_147_1635)"/>
<path d="M31.313 10.402C31.5673 9.60204 31.9924 8.87771 32.5459 8.27223L26.8771 4.99927C26.6228 5.79924 26.1976 6.52357 25.644 7.12904L31.313 10.402Z" fill="url(#paint2_linear_147_1635)"/>
<path d="M35.543 17.7278V24.272C35.9396 24.1848 36.3511 24.1375 36.7734 24.1375C37.1959 24.1375 37.6073 24.1848 38.0039 24.272V17.7278C37.6073 17.815 37.1959 17.8623 36.7734 17.8623C36.3511 17.8623 35.9397 17.815 35.543 17.7278Z" fill="url(#paint3_linear_147_1635)"/>
<path d="M25.644 34.8709C26.1976 35.4763 26.6228 36.2007 26.8771 37.0006L32.5459 33.7277C31.9924 33.1222 31.5672 32.3979 31.313 31.5979L25.644 34.8709Z" fill="url(#paint4_linear_147_1635)"/>
<path d="M11.5205 31.5979C11.2662 32.3979 10.8411 33.1222 10.2876 33.7277L15.9564 37.0006C16.2107 36.2007 16.6359 35.4763 17.1895 34.8709L11.5205 31.5979Z" fill="url(#paint5_linear_147_1635)"/>
<path d="M7.29053 24.2722V17.7271C6.88948 17.8159 6.47629 17.8629 6.05702 17.8629C5.64326 17.8629 5.23171 17.8169 4.82959 17.7282V24.2721C5.22621 24.1849 5.6376 24.1375 6.06006 24.1375C6.48252 24.1376 6.89391 24.185 7.29053 24.2722Z" fill="url(#paint6_linear_147_1635)"/>
<path d="M17.1894 7.12929C16.6359 6.52382 16.2107 5.79948 15.9564 4.99951L10.29 8.271C10.8556 8.89116 11.2704 9.62156 11.518 10.4036L17.1894 7.12929Z" fill="url(#paint7_linear_147_1635)"/>
<path d="M21.417 6.53527C23.2217 6.53527 24.6847 5.0723 24.6847 3.26763C24.6847 1.46297 23.2217 0 21.417 0C19.6124 0 18.1494 1.46297 18.1494 3.26763C18.1494 5.0723 19.6124 6.53527 21.417 6.53527Z" fill="url(#paint8_linear_147_1635)"/>
<path d="M36.7735 15.4015C38.5782 15.4015 40.0411 13.9385 40.0411 12.1338C40.0411 10.3292 38.5782 8.86621 36.7735 8.86621C34.9688 8.86621 33.5059 10.3292 33.5059 12.1338C33.5059 13.9385 34.9688 15.4015 36.7735 15.4015Z" fill="url(#paint9_linear_147_1635)"/>
<path d="M4.42634 14.9638C4.941 15.2609 5.50267 15.4021 6.05712 15.4021C7.18636 15.4021 8.28484 14.8159 8.88999 13.7677C9.79233 12.2048 9.25683 10.2064 7.69397 9.30402C7.17931 9.0069 6.61764 8.86564 6.06319 8.86572C4.93395 8.8658 3.83547 9.45184 3.23032 10.5001C2.32798 12.063 2.86348 14.0614 4.42634 14.9638Z" fill="url(#paint10_linear_147_1635)"/>
<path d="M21.417 42.0001C23.2217 42.0001 24.6847 40.5371 24.6847 38.7325C24.6847 36.9278 23.2217 35.4648 21.417 35.4648C19.6124 35.4648 18.1494 36.9278 18.1494 38.7325C18.1494 40.5371 19.6124 42.0001 21.417 42.0001Z" fill="url(#paint11_linear_147_1635)"/>
<path d="M36.7735 33.1339C38.5782 33.1339 40.0411 31.6709 40.0411 29.8663C40.0411 28.0616 38.5782 26.5986 36.7735 26.5986C34.9688 26.5986 33.5059 28.0616 33.5059 29.8663C33.5059 31.6709 34.9688 33.1339 36.7735 33.1339Z" fill="url(#paint12_linear_147_1635)"/>
<path d="M6.06011 33.1339C7.86478 33.1339 9.32775 31.6709 9.32775 29.8663C9.32775 28.0616 7.86478 26.5986 6.06011 26.5986C4.25545 26.5986 2.79248 28.0616 2.79248 29.8663C2.79248 31.6709 4.25545 33.1339 6.06011 33.1339Z" fill="url(#paint13_linear_147_1635)"/>
<defs>
<linearGradient id="paint0_linear_147_1635" x1="21.4168" y1="18.0243" x2="22.1745" y2="23.8147" gradientUnits="userSpaceOnUse">
<stop stop-color="white"/>
<stop offset="1" stop-color="#121523"/>
</linearGradient>
<linearGradient id="paint1_linear_147_1635" x1="21.4169" y1="7.18257" x2="25.2416" y2="33.9838" gradientUnits="userSpaceOnUse">
<stop stop-color="white"/>
<stop offset="1" stop-color="#121523"/>
</linearGradient>
<linearGradient id="paint2_linear_147_1635" x1="29.095" y1="4.62555" x2="29.7119" y2="10.6485" gradientUnits="userSpaceOnUse">
<stop stop-color="white"/>
<stop offset="1" stop-color="#121523"/>
</linearGradient>
<linearGradient id="paint3_linear_147_1635" x1="36.7734" y1="17.2751" x2="39.0615" y2="23.8509" gradientUnits="userSpaceOnUse">
<stop stop-color="white"/>
<stop offset="1" stop-color="#121523"/>
</linearGradient>
<linearGradient id="paint4_linear_147_1635" x1="29.095" y1="31.2242" x2="29.7119" y2="37.2471" gradientUnits="userSpaceOnUse">
<stop stop-color="white"/>
<stop offset="1" stop-color="#121523"/>
</linearGradient>
<linearGradient id="paint5_linear_147_1635" x1="13.7385" y1="31.2242" x2="14.3554" y2="37.2471" gradientUnits="userSpaceOnUse">
<stop stop-color="white"/>
<stop offset="1" stop-color="#121523"/>
</linearGradient>
<linearGradient id="paint6_linear_147_1635" x1="6.06006" y1="17.2743" x2="8.34866" y2="23.8508" gradientUnits="userSpaceOnUse">
<stop stop-color="white"/>
<stop offset="1" stop-color="#121523"/>
</linearGradient>
<linearGradient id="paint7_linear_147_1635" x1="13.7397" y1="4.6257" x2="14.3572" y2="10.6501" gradientUnits="userSpaceOnUse">
<stop stop-color="white"/>
<stop offset="1" stop-color="#121523"/>
</linearGradient>
<linearGradient id="paint8_linear_147_1635" x1="21.417" y1="-0.452057" x2="22.3641" y2="6.78589" gradientUnits="userSpaceOnUse">
<stop stop-color="white"/>
<stop offset="1" stop-color="#121523"/>
</linearGradient>
<linearGradient id="paint9_linear_147_1635" x1="36.7735" y1="8.41415" x2="37.7205" y2="15.6521" gradientUnits="userSpaceOnUse">
<stop stop-color="white"/>
<stop offset="1" stop-color="#121523"/>
</linearGradient>
<linearGradient id="paint10_linear_147_1635" x1="6.06015" y1="8.41359" x2="7.00736" y2="15.6527" gradientUnits="userSpaceOnUse">
<stop stop-color="white"/>
<stop offset="1" stop-color="#121523"/>
</linearGradient>
<linearGradient id="paint11_linear_147_1635" x1="21.417" y1="35.0128" x2="22.3641" y2="42.2507" gradientUnits="userSpaceOnUse">
<stop stop-color="white"/>
<stop offset="1" stop-color="#121523"/>
</linearGradient>
<linearGradient id="paint12_linear_147_1635" x1="36.7735" y1="26.1466" x2="37.7205" y2="33.3845" gradientUnits="userSpaceOnUse">
<stop stop-color="white"/>
<stop offset="1" stop-color="#121523"/>
</linearGradient>
<linearGradient id="paint13_linear_147_1635" x1="6.06011" y1="26.1466" x2="7.00716" y2="33.3845" gradientUnits="userSpaceOnUse">
<stop stop-color="white"/>
<stop offset="1" stop-color="#121523"/>
</linearGradient>
</defs>
</svg>
