<svg width="26" height="42" viewBox="0 0 26 42" fill="none" xmlns="http://www.w3.org/2000/svg">
<path d="M13 0.5L18.5714 9.81818H14.8571V23.5737L20.4286 20.7801L20.4267 19.1364H18.5714V11.6818H26V19.1364H24.141L24.1429 23.0835L14.8571 27.7426V30.6369C17.0226 31.4047 18.5714 33.4752 18.5714 35.9091C18.5714 38.9971 16.0773 41.5 13 41.5C9.92271 41.5 7.42857 38.9971 7.42857 35.9091C7.42857 33.697 8.71 31.7849 10.5671 30.8773L1.85714 24.7273L1.85529 20.5005C0.746572 19.8557 0 18.6518 0 17.2727C0 15.2134 1.66214 13.5455 3.71429 13.5455C5.76643 13.5455 7.42857 15.2134 7.42857 17.2727C7.42857 18.6518 6.682 19.8576 5.57143 20.5005V22.8636L11.1429 26.7512V9.81818H7.42857L13 0.5Z" fill="url(#paint0_linear_57_128)"/>
<defs>
<linearGradient id="paint0_linear_57_128" x1="13" y1="-2.33605" x2="22.1405" y2="41.9637" gradientUnits="userSpaceOnUse">
<stop stop-color="white"/>
<stop offset="1" stop-color="#121523"/>
</linearGradient>
</defs>
</svg>
